<?xml version="1.0" encoding="UTF-8"?>
<svg id="Layer_1" data-name="Layer 1" xmlns="http://www.w3.org/2000/svg" viewBox="0 0 144 38.83">
  <defs>
    <style>
      .cls-1 {
        fill: #fff;
      }

      .cls-2 {
        fill: #424242;
        fill-rule: evenodd;
      }
    </style>
  </defs>
  <path class="cls-2" d="m8,0h128c4.42,0,8,2.9,8,6.47v25.89c0,3.57-3.58,6.47-8,6.47H8c-4.42,0-8-2.9-8-6.47V6.47C0,2.9,3.58,0,8,0Z"/>
  <g>
    <path class="cls-1" d="m48.41,11.9h2.28c1.5,0,2.72.32,3.67.98.95.65,1.42,1.47,1.42,2.46,0,1.21-.7,2.22-2.1,3.03,2.17.72,3.25,1.98,3.25,3.76,0,1.24-.56,2.24-1.68,3-1.12.76-2.61,1.14-4.49,1.14h-2.36v-14.38Zm1.94,1.74v4.25c1.08-.01,1.91-.22,2.49-.62s.86-.95.86-1.65c0-.61-.26-1.1-.78-1.46s-1.22-.55-2.09-.55c-.19,0-.35,0-.49.02Zm0,5.96v4.92h.16c1.69,0,2.85-.27,3.46-.81s.93-1.09.93-1.66c0-.74-.35-1.34-1.04-1.78-.69-.44-1.64-.66-2.84-.66h-.67Z"/>
    <path class="cls-1" d="m58.98,21.58c0-1.27.5-2.4,1.51-3.39,1-.99,2.16-1.48,3.46-1.48s2.51.49,3.51,1.46c1,.97,1.5,2.11,1.5,3.41s-.49,2.46-1.47,3.46-2.12,1.5-3.4,1.5c-1.38,0-2.57-.49-3.58-1.48-1.01-.99-1.52-2.14-1.52-3.48Zm8.08,0c0-.79-.3-1.48-.9-2.06-.6-.58-1.32-.88-2.14-.88s-1.58.3-2.19.89c-.61.59-.92,1.3-.92,2.12s.31,1.47.93,2.06c.62.59,1.35.88,2.18.88s1.52-.3,2.13-.91c.61-.6.91-1.3.91-2.1Z"/>
    <path class="cls-1" d="m70.53,21.58c0-1.27.5-2.4,1.51-3.39,1-.99,2.16-1.48,3.46-1.48s2.51.49,3.51,1.46c1,.97,1.5,2.11,1.5,3.41s-.49,2.46-1.47,3.46-2.12,1.5-3.4,1.5c-1.38,0-2.57-.49-3.58-1.48-1.01-.99-1.52-2.14-1.52-3.48Zm8.08,0c0-.79-.3-1.48-.9-2.06-.6-.58-1.32-.88-2.14-.88s-1.58.3-2.19.89c-.61.59-.92,1.3-.92,2.12s.31,1.47.93,2.06c.62.59,1.35.88,2.18.88s1.52-.3,2.13-.91c.61-.6.91-1.3.91-2.1Z"/>
    <path class="cls-1" d="m82.49,11.63h1.96v9.42l3.85-4.08h2.54l-4.02,4.3,4.06,5.01h-2.43l-4-4.92v4.92h-1.96v-14.65Z"/>
    <path class="cls-1" d="m98.74,26.28v-9.31h1.92v1.55c.56-.62,1.08-1.08,1.54-1.37.46-.29.97-.43,1.53-.43.84,0,1.56.28,2.16.84.6.56.9,1.23.9,2.01v6.73h-1.96v-6.15c0-.5-.16-.92-.49-1.25-.33-.33-.74-.5-1.25-.5-.66,0-1.22.28-1.69.83s-.71,1.22-.71,2v5.07h-1.94Z"/>
    <path class="cls-1" d="m108.7,21.58c0-1.27.5-2.4,1.51-3.39,1.01-.99,2.16-1.48,3.46-1.48s2.51.49,3.51,1.46c1,.97,1.5,2.11,1.5,3.41s-.49,2.46-1.47,3.46-2.12,1.5-3.4,1.5c-1.38,0-2.57-.49-3.58-1.48s-1.52-2.14-1.52-3.48Zm8.08,0c0-.79-.3-1.48-.9-2.06-.6-.58-1.32-.88-2.14-.88s-1.58.3-2.19.89c-.61.59-.92,1.3-.92,2.12s.31,1.47.93,2.06,1.35.88,2.18.88,1.52-.3,2.13-.91c.61-.6.91-1.3.91-2.1Z"/>
    <path class="cls-1" d="m126.46,16.57l2.6,6.17,2.75-5.78h1.71l-4.58,9.57-2.49-5.94-2.49,5.86-4.56-9.49h1.72l2.77,5.72,2.58-6.12Z"/>
  </g>
  <path class="cls-1" d="m14.33,13.28c0-.3-.24-.55-.55-.55s-.55.24-.55.55v5.77l-3.74,6.34c-.15.26-.07.59.19.75.09.05.18.08.28.08.19,0,.37-.1.47-.27l3.82-6.47s0-.02.01-.03c.02-.03.03-.07.04-.11,0-.03.02-.07.02-.1,0-.01,0-.02,0-.04v-5.92Z"/>
  <path class="cls-1" d="m19.94,25.38l-3.74-6.34v-5.77c0-.3-.24-.55-.55-.55s-.55.24-.55.55v5.92s0,.02,0,.04c0,.03.01.07.02.1.01.04.02.07.04.11,0,.01,0,.02.01.03l3.82,6.47c.1.17.28.27.47.27.09,0,.19-.02.28-.08.26-.15.35-.49.19-.75Z"/>
  <path class="cls-1" d="m31.73,18.53l-.04-.5-.07-.48-.1-.45-.12-.43-.14-.4-.16-.37-.19-.35-.2-.33-.22-.3-.24-.28-.25-.25-.27-.23-.28-.21-.29-.19-.29-.17-.3-.15-.3-.13-.31-.12-.31-.1-.31-.09-.31-.07-.31-.06-.3-.05-.3-.04-.3-.03-.29-.02h-.28s-.27-.02-.27-.02h-.26s-.25,0-.25,0h-.02c-.06-.02-.13-.04-.2-.04-.3,0-.54.24-.54.54v10.45c0,.3.24.54.54.54s.54-.24.54-.54v-9.97h.17s.25,0,.25,0h.26s.26.03.26.03l.27.03.27.03.27.04.27.05.27.06.27.07.27.09.26.1.26.11.25.12.24.14.23.15.22.17.21.19.2.2.19.22.18.24.17.26.15.29.14.31.12.33.1.36.08.39.06.42.04.45.02.48v.49s-.03.46-.03.46l-.04.44-.05.41-.07.39-.08.36-.1.34-.11.31-.12.29-.14.27-.15.25-.17.23-.18.21-.2.2-.21.18-.23.17-.25.15-.27.14-.29.13-.31.12-.33.1-.35.09-.37.08-.39.07-.41.06-.43.05-.45.04-.47.03-.49.02h-.51s-.53.02-.53.02h0v-11.9c0-.3-.25-.55-.55-.55s-.55.25-.55.55v12.39c0,.3.25.55.55.55.08,0,.16-.02.22-.05h.33s.54,0,.54,0h.53s.51-.03.51-.03l.49-.03.47-.04.46-.05.44-.06.42-.08.41-.09.39-.1.37-.12.36-.14.34-.15.32-.17.31-.19.29-.21.27-.23.25-.25.23-.27.21-.29.19-.31.17-.33.15-.35.13-.37.11-.39.09-.41.08-.43.06-.46.04-.48.02-.5v-.52s-.01-.53-.01-.53Z"/>
  <path class="cls-1" d="m20.71,34.99c-8.59,0-15.58-6.99-15.58-15.58S12.12,3.84,20.71,3.84s15.58,6.99,15.58,15.58-6.99,15.58-15.58,15.58Zm0-30.47c-8.21,0-14.89,6.68-14.89,14.89s6.68,14.89,14.89,14.89,14.89-6.68,14.89-14.89-6.68-14.89-14.89-14.89Z"/>
</svg>